Coordinates
version=1
nRows=16
nColumns=22
inDegrees=yes

Units are S.I. units (second, meters, Newtons, ...)
If the header above contains a line with 'inDegrees', this indicates whether rotational values are in degrees (yes) or radians (no).

endheader
time	pelvis_tilt	pelvis_list	pelvis_rotation	pelvis_tx	pelvis_ty	pelvis_tz	hip_flexion_r	hip_adduction_r	hip_rotation_r	knee_angle_r	ankle_angle_r	subtalar_angle_r	hip_flexion_l	hip_adduction_l	hip_rotation_l	knee_angle_l	ankle_angle_l	subtalar_angle_l	lumbar_extension	lumbar_bending	lumbar_rotation
      0.01000000	     -7.64105533	     -2.12590647	     -0.21475879	     -1.08877366	      0.88439087	     -0.55393578	      5.66708462	     -2.34388315	      0.88656652	     -6.63767096	     13.14176633	      0.59321891	      4.23863907	     -6.47973736	    -10.85967219	     -8.17343406	     13.82025855	      8.09472395	      5.44566582	      1.89685041	     13.25733918
      0.02000000	     -7.62977941	     -2.08129773	     -0.21342341	     -1.08867491	      0.88441449	     -0.55417771	      5.63962929	     -2.40907926	      0.93435556	     -6.62219293	     13.12313362	      0.58743025	      4.22032567	     -6.41117752	    -10.86171266	     -8.17697315	     13.83827689	      8.09712259	      5.46404055	      1.86693484	     13.26729392
      0.03000000	     -7.61251147	     -2.04147357	     -0.22412664	     -1.08854883	      0.88445028	     -0.55443531	      5.59743977	     -2.47019082	      1.01477967	     -6.59329630	     13.13589243	      0.58164349	      4.18146965	     -6.34500115	    -10.86440560	     -8.16058273	     13.82605019	      8.08672054	      5.48297951	      1.84696830	     13.29594651
      0.04000000	     -7.58438717	     -1.99840977	     -0.24273808	     -1.08841312	      0.88450703	     -0.55471261	      5.55298742	     -2.53625973	      1.09080268	     -6.58005915	     13.12665909	      0.57584248	      4.12347853	     -6.27287992	    -10.88127379	     -8.13385619	     13.81745015	      8.06195660	      5.49297023	      1.82715543	     13.32772929
      0.05000000	     -7.55860822	     -1.96443723	     -0.26055515	     -1.08828191	      0.88455992	     -0.55500176	      5.50793774	     -2.59254933	      1.16175794	     -6.55955862	     13.13442057	      0.57352957	      4.07458563	     -6.21061560	    -10.89002513	     -8.11975462	     13.80677342	      8.03196187	      5.50785663	      1.81837682	     13.35694897
      0.06000000	     -7.53447429	     -1.93050455	     -0.27976720	     -1.08816514	      0.88461311	     -0.55529619	      5.47681083	     -2.64917584	      1.22102429	     -6.55858232	     13.12236229	      0.57387619	      4.02772623	     -6.14831606	    -10.90596744	     -8.10414826	     13.80434484	      7.99910064	      5.52435318	      1.81063106	     13.37505492
      0.07000000	     -7.51556071	     -1.89917254	     -0.29984607	     -1.08806540	      0.88465660	     -0.55558531	      5.44787067	     -2.70273070	      1.28094661	     -6.55031877	     13.13039665	      0.57775084	      3.99521256	     -6.09045674	    -10.91361434	     -8.10210404	     13.79616717	      7.96440358	      5.54595038	      1.80395236	     13.40032579
      0.08000000	     -7.50164463	     -1.87329263	     -0.31689249	     -1.08798398	      0.88469167	     -0.55587260	      5.43829602	     -2.75048091	      1.32342284	     -6.56477572	     13.12253033	      0.58295784	      3.96958657	     -6.03990401	    -10.92713035	     -8.10032060	     13.79731632	      7.93544080	      5.57067552	      1.80305272	     13.40301321
      0.09000000	     -7.49384395	     -1.84249348	     -0.33481688	     -1.08792903	      0.88471597	     -0.55615404	      5.43281035	     -2.80340159	      1.37157643	     -6.57200586	     13.13041396	      0.59104018	      3.96038579	     -5.98506280	    -10.93006588	     -8.11346306	     13.79626484	      7.90486578	      5.59796082	      1.79415212	     13.41733668
      0.10000000	     -7.49185290	     -1.81509573	     -0.34964241	     -1.08788325	      0.88472690	     -0.55643036	      5.44203140	     -2.85243125	      1.40716375	     -6.59428262	     13.13233437	      0.60012666	      3.95645974	     -5.93520132	    -10.94206899	     -8.12168657	     13.79836219	      7.87629936	      5.62851470	      1.78880730	     13.41108775
      0.11000000	     -7.51063995	     -1.77455563	     -0.36855971	     -1.08786163	      0.88470450	     -0.55670129	      5.48037578	     -2.91587904	      1.43742941	     -6.62486408	     13.16251468	      0.62473304	      3.98107650	     -5.87147176	    -10.95277599	     -8.13947699	     13.78902460	      7.81384226	      5.67837433	      1.76666227	     13.43212450
      0.12000000	     -7.50775225	     -1.76027975	     -0.36977562	     -1.08783572	      0.88471362	     -0.55697593	      5.48770880	     -2.95041837	      1.46492913	     -6.64787697	     13.15891987	      0.63117066	      3.98641548	     -5.83763636	    -10.94472328	     -8.15977444	     13.80105840	      7.80246057	      5.69881333	      1.77010402	     13.40541644
      0.13000000	     -7.51997163	     -1.72653671	     -0.36751770	     -1.08780725	      0.88469472	     -0.55726346	      5.50781216	     -3.00813732	      1.48299431	     -6.66463846	     13.17055881	      0.64212428	      4.01202586	     -5.78156474	    -10.93846198	     -8.18623740	     13.81755842	      7.78493914	      5.73383633	      1.74923449	     13.38117863
      0.14000000	     -7.51674824	     -1.72915020	     -0.36844250	     -1.08774082	      0.88470177	     -0.55752687	      5.50366182	     -3.02347270	      1.48500746	     -6.67141853	     13.17114512	      0.64263120	      4.00897659	     -5.76623135	    -10.93659728	     -8.19446295	     13.81750558	      7.78409152	      5.74947843	      1.76734989	     13.37971840
      0.15000000	     -7.55599586	     -1.66755247	     -0.34271302	     -1.08771629	      0.88463631	     -0.55785916	      5.55497234	     -3.11614819	      1.46529302	     -6.69868166	     13.21327595	      0.66941768	      4.07575744	     -5.67647551	    -10.90191839	     -8.23392204	     13.83516113	      7.75645938	      5.80659980	      1.70654459	     13.33338437
      0.16000000	     -7.57613533	     -1.65009917	     -0.31666996	     -1.08764795	      0.88460317	     -0.55816919	      5.57910641	     -3.15779895	      1.44588270	     -6.72180982	     13.22998679	      0.69490808	      4.10582481	     -5.63513500	    -10.87462329	     -8.24595233	     13.85255984	      7.73851270	      5.83996141	      1.69351591	     13.28056118
